<svg version="1.1" viewBox="0.0 0.0 163.3779527559055 115.59580052493439" fill="none" stroke="none" stroke-linecap="square" stroke-miterlimit="10" xmlns:xlink="http://www.w3.org/1999/xlink" xmlns="http://www.w3.org/2000/svg"><clipPath id="p.0"><path d="m0 0l163.37796 0l0 115.5958l-163.37796 0l0 -115.5958z" clip-rule="nonzero"/></clipPath><g clip-path="url(#p.0)"><path fill="#000000" fill-opacity="0.0" d="m0 0l163.37796 0l0 115.5958l-163.37796 0z" fill-rule="evenodd"/><path fill="#000000" fill-opacity="0.0" d="m-4.460691 -5.479147l170.64568 0l0 118.362206l-170.64568 0z" fill-rule="evenodd"/><path fill="#3c78d8" d="m19.133059 95.68085q-2.109375 0 -3.5625 -1.4375q-1.4375 -1.4375 -1.4375 -3.546875l0 -65.0q0 -2.203125 1.4375 -3.59375q1.453125 -1.390625 3.5625 -1.390625q2.203125 0 3.59375 1.390625q1.390625 1.390625 1.390625 3.59375l0 27.546877l44.546875 0l0 -27.546877q0 -2.203125 1.4375 -3.59375q1.453125 -1.390625 3.5625 -1.390625q2.203125 0 3.546875 1.390625q1.34375 1.390625 1.34375 3.59375l0 65.0q0 2.109375 -1.34375 3.546875q-1.34375 1.4375 -3.546875 1.4375q-2.109375 0 -3.5625 -1.4375q-1.4375 -1.4375 -1.4375 -3.546875l0 -28.609371l-44.546875 0l0 28.609371q0 2.109375 -1.390625 3.546875q-1.390625 1.4375 -3.59375 1.4375z" fill-rule="nonzero"/><path fill="#6aa84f" d="m121.56152 96.63397q-6.140625 0 -11.71875 -1.90625q-5.5625 -1.921875 -9.6875 -5.375q-4.125 -3.46875 -6.046875 -7.96875q-0.96875 -2.015625 0.046875 -3.75q1.015625 -1.734375 3.40625 -2.203125q1.734375 -0.390625 3.40625 0.53125q1.6875 0.90625 2.546875 2.734375q1.15625 2.390625 3.796875 4.40625q2.640625 2.015625 6.375 3.265625q3.75 1.25 7.875 1.25q4.609375 0 8.5 -1.4375q3.890625 -1.4375 6.28125 -4.171875q2.40625 -2.75 2.40625 -6.78125q0 -5.078125 -3.984375 -9.109375q-3.984375 -4.031246 -13.109375 -4.999996q-11.90625 -1.15625 -18.71875 -7.0q-6.8125 -5.859375 -6.8125 -14.5q0 -6.34375 3.546875 -10.750002q3.5625 -4.421875 9.65625 -6.71875q6.09375 -2.3125 13.578125 -2.3125q5.859375 0 10.21875 1.640625q4.375 1.625 7.640625 4.515625q3.265625 2.875 5.65625 6.812502q1.34375 2.109375 1.109375 3.984375q-0.234375 1.859375 -1.875 2.921875q-1.8125 1.15625 -3.9375 0.484375q-2.109375 -0.671875 -3.15625 -2.5q-1.546875 -2.78125 -3.75 -4.703125q-2.203125 -1.9218769 -5.1875 -3.015627q-2.96875 -1.109375 -7.0 -1.109375q-7.109375 -0.09375 -11.90625 2.640625q-4.796875 2.734377 -4.796875 8.390627q0 2.890625 1.484375 5.53125q1.484375 2.640625 5.46875 4.5625q3.984375 1.90625 11.46875 2.671875q11.421875 1.15625 17.8125 6.96875q6.390625 5.812496 6.390625 15.312496q0 5.46875 -2.265625 9.5q-2.25 4.03125 -6.046875 6.765625q-3.796875 2.734375 -8.640625 4.078125q-4.84375 1.34375 -10.03125 1.34375z" fill-rule="nonzero"/></g></svg>