<svg version="1.1" viewBox="0.0 0.0 189.8215223097113 107.35958005249344" fill="none" stroke="none" stroke-linecap="square" stroke-miterlimit="10" xmlns:xlink="http://www.w3.org/1999/xlink" xmlns="http://www.w3.org/2000/svg"><clipPath id="p.0"><path d="m0 0l189.82152 0l0 107.35958l-189.82152 0l0 -107.35958z" clip-rule="nonzero"/></clipPath><g clip-path="url(#p.0)"><path fill="#000000" fill-opacity="0.0" d="m0 0l189.82152 0l0 107.35958l-189.82152 0z" fill-rule="evenodd"/><path fill="#000000" fill-opacity="0.0" d="m0 0l199.05511 0l0 125.57481l-199.05511 0z" fill-rule="evenodd"/><path fill="#000000" d="m21.15625 85.799995q-1.75 0 -2.953125 -1.203125q-1.203125 -1.203125 -1.203125 -2.953125l0 -54.15625q0 -1.84375 1.203125 -3.0q1.203125 -1.171875 2.953125 -1.171875q1.84375 0 3.0 1.171875q1.15625 1.15625 1.15625 3.0l0 22.953125l37.125 0l0 -22.953125q0 -1.84375 1.203125 -3.0q1.203125 -1.171875 2.953125 -1.171875q1.84375 0 2.96875 1.171875q1.125 1.15625 1.125 3.0l0 54.15625q0 1.75 -1.125 2.953125q-1.125 1.203125 -2.96875 1.203125q-1.75 0 -2.953125 -1.203125q-1.203125 -1.203125 -1.203125 -2.953125l0 -23.84375l-37.125 0l0 23.84375q0 1.75 -1.15625 2.953125q-1.15625 1.203125 -3.0 1.203125zm85.36743 0.796875q-5.125 0 -9.765625 -1.59375q-4.640625 -1.609375 -8.078125 -4.484375q-3.4375 -2.875 -5.046875 -6.640625q-0.796875 -1.671875 0.046875 -3.109375q0.84375 -1.453125 2.84375 -1.84375q1.4375 -0.328125 2.828125 0.4375q1.40625 0.75 2.125 2.28125q0.96875 2.0 3.15625 3.6875q2.203125 1.671875 5.328125 2.71875q3.125 1.03125 6.5625 1.03125q3.84375 0 7.078125 -1.203125q3.234375 -1.203125 5.234375 -3.484375q2.0 -2.28125 2.0 -5.640625q0 -4.234375 -3.328125 -7.59375q-3.3125 -3.359375 -10.90625 -4.15625q-9.921875 -0.96875 -15.609375 -5.84375q-5.671875 -4.875 -5.671875 -12.078125q0 -5.28125 2.953125 -8.953125q2.96875 -3.6875 8.046875 -5.609375q5.078125 -1.921875 11.3125 -1.921875q4.890625 0 8.53125 1.359375q3.640625 1.359375 6.359375 3.765625q2.71875 2.390625 4.71875 5.671875q1.125 1.765625 0.921875 3.328125q-0.203125 1.5625 -1.5625 2.4375q-1.515625 0.953125 -3.28125 0.40625q-1.765625 -0.5625 -2.640625 -2.078125q-1.28125 -2.328125 -3.125 -3.921875q-1.828125 -1.609375 -4.3125 -2.53125q-2.484375 -0.921875 -5.84375 -0.921875q-5.921875 -0.078125 -9.921875 2.203125q-4.0 2.28125 -4.0 7.0q0 2.40625 1.234375 4.609375q1.25 2.1875 4.5625 3.796875q3.328125 1.59375 9.5625 2.234375q9.53125 0.96875 14.84375 5.8125q5.3125 4.828125 5.3125 12.75q0 4.5625 -1.875 7.921875q-1.875 3.359375 -5.046875 5.640625q-3.15625 2.28125 -7.203125 3.40625q-4.03125 1.109375 -8.34375 1.109375zm54.243073 -0.484375q-6.40625 0 -11.40625 -2.90625q-5.0 -2.921875 -7.84375 -7.921875q-2.84375 -5.0 -2.84375 -11.328125q0 -6.46875 2.796875 -11.515625q2.8125 -5.046875 7.6875 -7.875q4.875 -2.84375 11.203125 -2.84375q4.71875 0 8.640625 1.796875q3.921875 1.796875 7.03125 5.40625q1.125 1.28125 0.796875 2.640625q-0.3125 1.359375 -1.75 2.390625q-1.125 0.796875 -2.484375 0.53125q-1.359375 -0.28125 -2.46875 -1.40625q-3.921875 -4.15625 -9.765625 -4.15625q-4.078125 0 -7.203125 1.875q-3.125 1.875 -4.890625 5.234375q-1.75 3.359375 -1.75 7.921875q0 4.328125 1.796875 7.6875q1.8125 3.359375 5.0 5.328125q3.203125 1.953125 7.453125 1.953125q2.796875 0 4.90625 -0.671875q2.125 -0.6875 3.890625 -2.140625q1.28125 -1.03125 2.640625 -1.140625q1.359375 -0.125 2.390625 0.75q1.359375 1.125 1.515625 2.53125q0.171875 1.390625 -0.953125 2.5q-5.75 5.359375 -14.390625 5.359375z" fill-rule="nonzero"/></g></svg>